<svg id="Capa_1" enable-background="new 0 0 512 512" height="512" viewBox="0 0 512 512" width="512" xmlns="http://www.w3.org/2000/svg"><g><path d="m337 0h-162c-96.495 0-175 78.505-175 175v162c0 96.495 78.505 175 175 175h162c96.495 0 175-78.505 175-175v-162c0-96.495-78.505-175-175-175zm145 337c0 79.953-65.047 145-145 145h-162c-79.953 0-145-65.047-145-145v-162c0-79.953 65.047-145 145-145h162c79.953 0 145 65.047 145 145z"/><path d="m344.442 226.898-123.999-82.846c-23.236-15.524-54.443 1.17-54.443 29.102v165.691c0 28.091 31.396 44.499 54.444 29.103l123.999-82.846c20.7-13.83 20.759-44.334-.001-58.204zm-16.666 33.26-123.998 82.845c-3.318 2.216-7.778-.123-7.778-4.157v-165.692c0-3.983 4.418-6.403 7.778-4.158l123.999 82.846c2.969 1.984 2.972 6.329-.001 8.316z"/></g></svg>